<svg xmlns="http://www.w3.org/2000/svg" viewBox="0 0 250 250">
  <path fill="#DD0031" d="M124.9 236.6L94.5 199 25 165.1l69.5-33.9 30.4-37.7 30.4 37.7 69.5 33.9-69.5 33.9-30.4 37.6z"/>
  <path fill="#C3002F" d="M156.1 138.8L185.6 172.7 250 206.6 156.1 138.8z"/>
  <path fill="#C3002F" d="M93.9 138.8l64.4 67.8H93.9z"/>
  <path fill="#FFF" d="M126.6 96.2c16.5 10.3 26 26.2 26 43.5 0 18.5-12.5 34.7-30.7 40.5l-23.5-28.7 19-24-1.8.1 31.8-31.4z"/>
  <path fill="#EBE8E8" d="M142.6 149.7l-40 49-24.5-30 22.9-28.3 6.5-8-28-34.6 35.5 28.9 27.6 24z"/>
</svg>