<svg width="24" height="24" viewBox="0 0 256 256" xmlns="http://www.w3.org/2000/svg" preserveAspectRatio="xMinYMin meet">
  <g fill="#764ABC">
    <path d="M234.34 165.48c-14.4 34.28-38.37 57.63-71.02 69.82-20.48 7.6-41.3 9.33-62.57 4.47-8.7-2-17.13-5.07-25.26-8.92-1.2-.6-2.38-1.35-3.54-2.1-1.16-.73-1.26-.93-.7-2.16 5.53-12.74 11.04-25.47 16.56-38.2.6-1.4 1.22-1.6 2.65-.96 13.06 5.63 26.43 8.16 40.55 6.58 21.1-2.28 38.7-11.4 52.47-27.15 8.67-9.6 14.83-20.75 18.6-33.4.9-2.94 1.5-5.97 1.86-9 .1-1.2.5-1.7 1.63-1.64 14.18.55 28.37.6 42.55-.06 1.1 0 1.5.3 1.2 1.35-3.32 9.97-6.3 20.02-10.03 29.76z"/>
    <path d="M88.24 184.5c-9.33 22.5-24.68 39.47-47.46 49.2-20.03 8.66-40.85 10.2-61.97 4.46-7.24-2.08-14.38-4.94-21.23-8.65-1.2-.67-2.36-1.4-3.5-2.15-.34-.2-.8-.55-.35-1.15 4.37-6.16 8.72-12.33 13.1-18.5.4-.55.85-1.1 1.35-1.6.23-.23.35-.3.6.06 8.5 12.5 19.3 21.7 33.14 27.26 14.53 5.77 29.48 6.8 44.6 3.38 21.1-4.63 36.85-16.95 47.05-36.8 2.18-4.27 3.75-8.8 5.6-13.24.4-.9.7-1.4 1.75-.75 8.66 5.3 17.48 10.37 26.28 15.53.73.43 1.1.75 1.15 1.55.3 4.88.6 9.77.94 14.64.03.35-.12.55-.4.75-7.93 5.65-16.26 10.27-25.13 13.65-19.2 7.3-38.92 9.14-58.97 4.34-14.9-3.4-28.48-9.36-40.88-18.14-6.53-4.5-12.72-9.45-18.53-15.03-.55-.5-.5-.55-.15-.9 5.1-5.4 10.25-10.77 15.36-16.16z"/>
    <path d="M109.48 139.04c-3.67 9.1-7.26 18.23-10.96 27.3-7.35 18.15-15.37 36-24.5 53.24-1.1 2-2.25 3.93-3.42 5.86-.1.15-.35.35-.5.25-12.7-6.6-23.75-15.34-33.1-26.05-6.3-7.18-11.68-15.03-16.07-23.6-.4-.85-.1-1.1.7-.9 4.6 1.15 9.2 2.16 13.85 3.08.5.1.7.05.9-.45 7.43-17.55 19.53-31.32 36.07-41.1 7.93-4.6 16.33-7.8 25.37-9.07 6.28-.85 12.56-.7 18.8-.37 3.26.15 6.53.5 9.7 1.12.85.15 1.5-.05 2.18-.5 8.4-5.12 16.82-10.15 25.25-15.18 1.1-.66 2.22-1.25 3.34-1.85.22-.12.35-.2.35-.5-3.47-7.63-7.02-15.2-10.43-22.83-.25-.56-.52-1.1-.76-1.67-.1-.22-.05-.45.22-.5 2.6-.4 5.16-.9 7.7-1.36.53-.1.95 0 1.22.5 5.4 8.7 9.96 17.7 14.3 26.82 3.8 8 7.7 15.97 11.32 24.07.7 1.55 1.33 3.13 2 4.7.17.4.34.8.52 1.2.22.53.1.83-.53.94-7.83 1.3-15.6 2.65-23.4 3.93-.78.14-1.05.35-.78 1.12 4.2 11.64 7.77 23.4 10.52 35.43 1.6 7.17 2.8 14.38 3.83 21.66.06.37-.2.6-.45.75-9.7 6.15-20 11.3-30.9 15.3-13.9 5.1-28.2 7.4-42.86 7.07-11.84-.23-23.43-2.25-34.5-6.68-7.8-3.1-15.3-7-22.3-11.8-1.13-.77-2.2-1.55-3.3-2.3-.25-.15-.35-.35-.17-.67 3.3-6.02 6.56-12.05 9.9-18.05.73-1.33 1.4-2.7 2.08-4.05.3-.6.67-.58 1.18-.38 7.55 3.05 15.33 5.1 23.48 5.4 10.53.45 20.55-1.65 30.05-6.34 8.52-4.2 15.42-10.25 20.7-18.18 3.33-4.8 5.85-10.03 7.52-15.72.5-1.72.85-3.48 1.22-5.22.1-.47 0-.7-.57-.7-9.36-.05-18.73 0-28.1-.1-.6 0-.78.2-1 .7-3.86 7.6-8.95 14.3-15.58 19.97-5.08 4.5-10.77 8.08-16.94 10.66-4.95 1.97-10 3-15.28 3.1-1.37.02-1.9-.37-2.32-1.62-3.27-9.7-6.55-19.4-9.85-29.1-.12-.34-.1-.7.16-1 .1-.1.2-.3.3-.3h56.34c1.13 0 1.47-.34 1.9-1.3 2.75-6.3 5.5-12.6 8.27-18.9.14-.34.24-.75.6-.75 3.67-.22 7.34-.32 11-.47.37-.02.67.05.78.5.46 2.06.94 4.12 1.4 6.18.85 3.7 1.68 7.4 2.6 11.08.36 1.5.74 2.98 1.13 4.47.15.6.28 1.2.42 1.8.05.3 0 .52-.3.65-6.6 2.45-12.8 5.7-18.75 9.48z"/>
  </g>
</svg>
